<?xml version="1.0" encoding="utf-8"?>
<!-- Generator: Adobe Illustrator 27.3.1, SVG Export Plug-In . SVG Version: 6.00 Build 0)  -->
<svg version="1.1" id="Layer_1" xmlns="http://www.w3.org/2000/svg" xmlns:xlink="http://www.w3.org/1999/xlink" x="0px" y="0px"
	 viewBox="0 0 118.5 27" style="enable-background:new 0 0 118.5 27;" xml:space="preserve">
<style type="text/css">
	.st0{fill:url(#SVGID_1_);}
	.st1{fill:url(#SVGID_00000015319564022232403680000006045615187584001185_);}
	.st2{fill:url(#SVGID_00000078007643181550564050000001925042043335815307_);}
	.st3{fill:#692E2E;}
	.st4{fill:url(#SVGID_00000130637619362550492780000012144429254842978494_);}
	.st5{fill:url(#SVGID_00000064346444647967204010000009643683553942728373_);}
</style>
<path d="M15.4,10.8c-0.4-0.7-1-1.3-1.7-1.7c-0.7-0.4-1.6-0.6-2.6-0.6C9.4,8.6,8,9.2,7,10.3c-1,1.1-1.6,2.6-1.6,4.5
	c0,2,0.5,3.6,1.6,4.7c1.1,1.1,2.6,1.7,4.5,1.7c1.3,0,2.4-0.3,3.3-1c0.9-0.7,1.6-1.6,2-2.9h-6.8v-3.9h11.6v5c-0.4,1.3-1.1,2.6-2,3.7
	c-0.9,1.1-2.1,2.1-3.6,2.8C14.6,25.6,13,26,11.2,26c-2.2,0-4.1-0.5-5.8-1.4c-1.7-1-3-2.3-4-4C0.5,18.9,0,17,0,14.8S0.5,10.7,1.4,9
	c1-1.7,2.3-3,4-4c1.7-1,3.6-1.4,5.8-1.4c2.6,0,4.8,0.6,6.6,1.9c1.8,1.3,3,3,3.6,5.3H15.4z M32.6,26.1c-1.7,0-3.2-0.4-4.6-1.1
	c-1.4-0.7-2.4-1.8-3.2-3.1c-0.8-1.4-1.2-2.9-1.2-4.7c0-1.8,0.4-3.4,1.2-4.7C25.6,11,26.7,10,28,9.2c1.4-0.7,2.9-1.1,4.6-1.1
	c1.7,0,3.2,0.4,4.6,1.1c1.4,0.7,2.5,1.8,3.2,3.2c0.8,1.4,1.2,2.9,1.2,4.7c0,1.8-0.4,3.4-1.2,4.7c-0.8,1.4-1.9,2.4-3.3,3.1
	C35.8,25.7,34.3,26.1,32.6,26.1z M32.6,21.4c1,0,1.9-0.4,2.6-1.1c0.7-0.7,1.1-1.8,1.1-3.2c0-1.4-0.4-2.5-1.1-3.2
	c-0.7-0.7-1.5-1.1-2.6-1.1c-1,0-1.9,0.4-2.6,1.1c-0.7,0.7-1,1.8-1,3.2c0,1.4,0.3,2.5,1,3.2C30.7,21.1,31.6,21.4,32.6,21.4z
	 M58.5,21.3v4.5h-2.7c-1.9,0-3.4-0.5-4.5-1.4c-1.1-1-1.6-2.5-1.6-4.6v-6.9h-2.1V8.4h2.1V4.1h5.3v4.2h3.5v4.4h-3.5v7
	c0,0.5,0.1,0.9,0.4,1.1c0.2,0.2,0.7,0.3,1.2,0.3H58.5z M60.4,17.1c0-1.8,0.4-3.4,1.1-4.7c0.7-1.4,1.8-2.4,3.1-3.1
	c1.3-0.7,2.8-1.1,4.6-1.1c2.2,0,4,0.6,5.5,1.7c1.5,1.1,2.4,2.8,2.9,4.8h-5.7c-0.5-1.3-1.4-2-2.8-2c-1,0-1.8,0.4-2.3,1.2
	c-0.6,0.7-0.9,1.8-0.9,3.2c0,1.4,0.3,2.5,0.9,3.3c0.6,0.7,1.4,1.1,2.3,1.1c1.4,0,2.3-0.7,2.8-2h5.7c-0.5,2-1.4,3.6-2.9,4.8
	c-1.5,1.2-3.3,1.7-5.5,1.7c-1.7,0-3.2-0.4-4.6-1.1c-1.3-0.7-2.3-1.8-3.1-3.1C60.7,20.5,60.4,18.9,60.4,17.1z M91,8.2
	c2,0,3.6,0.7,4.8,2c1.2,1.3,1.8,3.1,1.8,5.4v10.2h-5.3v-9.5c0-1.2-0.3-2.1-0.9-2.7c-0.6-0.6-1.4-1-2.4-1c-1,0-1.8,0.3-2.4,1
	c-0.6,0.6-0.9,1.5-0.9,2.7v9.5h-5.3V2.7h5.3v8c0.5-0.8,1.3-1.4,2.2-1.8C88.8,8.4,89.9,8.2,91,8.2z M118.5,8.4v17.4h-5.3v-2.4
	c-0.5,0.8-1.3,1.4-2.2,1.9c-0.9,0.5-1.9,0.7-3.1,0.7c-1.3,0-2.5-0.3-3.5-0.9c-1-0.6-1.8-1.5-2.4-2.6c-0.6-1.1-0.8-2.4-0.8-4V8.4h5.3
	v9.5c0,1.2,0.3,2.1,0.9,2.7c0.6,0.6,1.4,1,2.4,1c1,0,1.9-0.3,2.5-1s0.9-1.5,0.9-2.7V8.4H118.5z"/>
<linearGradient id="SVGID_1_" gradientUnits="userSpaceOnUse" x1="23.2773" y1="20.2994" x2="27.5664" y2="15.8293" gradientTransform="matrix(1 0 0 -1 0 32.3292)">
	<stop  offset="0" style="stop-color:#D3A262"/>
	<stop  offset="0.66" style="stop-color:#CC7A54"/>
	<stop  offset="1" style="stop-color:#B55B3F"/>
</linearGradient>
<path class="st0" d="M28.6,15.6c-0.1,0.7-0.9,1.1-1,1.2c-1.1,0.6-2.4-0.2-2.9-0.5c0,0-0.1-0.1-0.1-0.1c-0.4-0.3-1.2-0.8-1.3-1.9
	c-0.2-1.3,0.9-2.7,1.6-2.7c0,0,0,0,0,0c0.3,0,0.3,0.3,0.9,0.8c0.2,0.2,0.3,0.3,0.5,0.4c0.4,0.3,0.7,0.3,1,0.5
	c0.1,0.1,0.3,0.2,0.4,0.3C28,14,28.8,14.8,28.6,15.6L28.6,15.6z"/>
<linearGradient id="SVGID_00000115491136466349026480000008875627234529021872_" gradientUnits="userSpaceOnUse" x1="32.6797" y1="17.1416" x2="43.5543" y2="9.8907" gradientTransform="matrix(1 0 0 -1 0 32.3292)">
	<stop  offset="0" style="stop-color:#D3A262"/>
	<stop  offset="0.66" style="stop-color:#CC7A54"/>
	<stop  offset="1" style="stop-color:#B55B3F"/>
</linearGradient>
<path style="fill:url(#SVGID_00000115491136466349026480000008875627234529021872_);" d="M45.4,17.1c0,2.3-0.8,4.7-2.4,6.5
	c-2.1,2.4-4.7,2.8-6.6,3.2c-0.1,0-0.5,0.1-1,0.1c-0.4,0-1.1-0.1-1.5-0.6c-0.4-0.6-0.4-1.4-0.1-1.9c0.2-0.4,0.4-0.2,1.4-0.9
	c0.8-0.5,1.3-1,1.6-1.6c0,0,0-0.1,0-0.1c0.2-0.5,0.3-1.4-0.2-1.9c-0.3-0.3-0.8-0.3-1.5-0.4c-0.8,0-0.9,0.2-1.7,0.2
	c-0.6,0-1.6,0-2.1-0.6c-0.4-0.5-0.5-1.2-0.2-1.8c0.3-0.5,0.9-0.7,1.2-0.8c0.9-0.3,1.2,0.2,1.9-0.1c0.6-0.2,1.3-0.8,1.2-1.5
	c0-0.8-0.8-1.2-0.9-1.2c0.4,0.1,1,0.2,1.7,0.3c0,0,0.1,0,0.2,0c1.8,0.2,3.3,0.4,4.8-0.3c0.1-0.1,0.3-0.1,0.4-0.2
	c0.7-0.4,1.3-0.9,1.9-1.5c0.7,0.7,1,1.6,1.2,2.3C45.2,15.2,45.4,16.2,45.4,17.1L45.4,17.1z"/>
<linearGradient id="SVGID_00000124873121050080777850000008856452979974264963_" gradientUnits="userSpaceOnUse" x1="32.0101" y1="24.2303" x2="45.6034" y2="25.6801" gradientTransform="matrix(1 0 0 -1 0 32.3292)">
	<stop  offset="0" style="stop-color:#D3A262"/>
	<stop  offset="0.66" style="stop-color:#CC7A54"/>
	<stop  offset="1" style="stop-color:#B55B3F"/>
</linearGradient>
<path style="fill:url(#SVGID_00000124873121050080777850000008856452979974264963_);" d="M44.8,10.3c-0.2,0.4-1,2.5-3.1,3.5
	c-1.2,0.6-2.6,0.5-5.2,0.2c0,0-4.4-0.4-7-2.3c-0.5-0.4-0.9-0.8-0.9-0.8c-0.3-0.4-0.5-0.8-0.7-1.3c-0.3-1.3,0.4-3.1,0.4-3.1
	c0.8-2.2,2.4-3.5,3.1-4c0.6-0.5,1-0.7,1.1-0.8c0.3-0.2,1.8-1,3.8-1.1c0.6,0,4.1-0.2,6.7,2.3c0.5,0.5,2.1,2.1,2.3,4.5
	C45.4,8.8,45,9.8,44.8,10.3L44.8,10.3z"/>
<path class="st3" d="M33.9,9c0.7,0.5,1.4,0.9,2.3,0.8c0.1,0,0.2,0.1,0.2,0.2c0,0.1,0,0.1-0.1,0.1c-0.9,0.5-2.2,0-2.5-1
	C33.7,9,33.8,8.9,33.9,9L33.9,9z"/>
<path class="st3" d="M29.6,7.4c0.3,0.4,0.8,0.7,1.3,0.8c0.2,0,0.4,0,0.6,0.1c0.1,0,0.2,0.2,0.1,0.3c-0.6,0.4-1.5,0.2-2-0.4
	C29.4,8,29,7.4,29.4,7.3C29.5,7.3,29.5,7.3,29.6,7.4L29.6,7.4z"/>
<linearGradient id="SVGID_00000082340838197678564620000014840087845177534910_" gradientUnits="userSpaceOnUse" x1="27.6836" y1="29.7297" x2="29.405" y2="29.7297" gradientTransform="matrix(1 0 0 -1 0 32.3292)">
	<stop  offset="0" style="stop-color:#D3A262"/>
	<stop  offset="0.66" style="stop-color:#CC7A54"/>
	<stop  offset="1" style="stop-color:#B55B3F"/>
</linearGradient>
<path style="fill:url(#SVGID_00000082340838197678564620000014840087845177534910_);" d="M28.5,3.5c0.5,0,0.9-0.4,0.9-0.9
	S29,1.7,28.5,1.7c-0.5,0-0.9,0.4-0.9,0.9S28.1,3.5,28.5,3.5z"/>
<linearGradient id="SVGID_00000066510008144353691020000012552773841588067485_" gradientUnits="userSpaceOnUse" x1="29.8574" y1="31.1352" x2="30.8548" y2="31.1352" gradientTransform="matrix(1 0 0 -1 0 32.3292)">
	<stop  offset="0" style="stop-color:#D3A262"/>
	<stop  offset="0.66" style="stop-color:#CC7A54"/>
	<stop  offset="1" style="stop-color:#B55B3F"/>
</linearGradient>
<path style="fill:url(#SVGID_00000066510008144353691020000012552773841588067485_);" d="M30.9,1.2c0,0.3-0.2,0.5-0.5,0.5
	s-0.5-0.2-0.5-0.5c0-0.3,0.2-0.5,0.5-0.5S30.9,0.9,30.9,1.2z"/>
</svg>
